HIERARCHY
ROOT Hips
{
	OFFSET 0.00000 0.00000 0.00000
	CHANNELS 6 Xposition Yposition Zposition Zrotation Yrotation Xrotation 
	JOINT LHipJoint
	{
		OFFSET 0 0 0
		CHANNELS 3 Zrotation Yrotation Xrotation
		JOINT LeftUpLeg
		{
			OFFSET 1.41261 -1.82971 0.84908
			CHANNELS 3 Zrotation Yrotation Xrotation
			JOINT LeftLeg
			{
				OFFSET 2.52554 -6.93888 0.00000
				CHANNELS 3 Zrotation Yrotation Xrotation
				JOINT LeftFoot
				{
					OFFSET 2.56654 -7.05152 0.00000
					CHANNELS 3 Zrotation Yrotation Xrotation
					JOINT LeftToeBase
					{
						OFFSET 0.21698 -0.59616 1.85369
						CHANNELS 3 Zrotation Yrotation Xrotation
						End Site
						{
							OFFSET 0.00000 -0.00000 0.97832
						}
					}
				}
			}
		}
	}
	JOINT RHipJoint
	{
		OFFSET 0 0 0
		CHANNELS 3 Zrotation Yrotation Xrotation
		JOINT RightUpLeg
		{
			OFFSET -1.12808 -1.82971 0.84907
			CHANNELS 3 Zrotation Yrotation Xrotation
			JOINT RightLeg
			{
				OFFSET -2.53425 -6.96280 0.00000
				CHANNELS 3 Zrotation Yrotation Xrotation
				JOINT RightFoot
				{
					OFFSET -2.58413 -7.09983 0.00000
					CHANNELS 3 Zrotation Yrotation Xrotation
					JOINT RightToeBase
					{
						OFFSET -0.26437 -0.72636 1.92241
						CHANNELS 3 Zrotation Yrotation Xrotation
						End Site
						{
							OFFSET -0.00000 -0.00000 1.02667
						}
					}
				}
			}
		}
	}
	JOINT LowerBack
	{
		OFFSET 0 0 0
		CHANNELS 3 Zrotation Yrotation Xrotation
		JOINT Spine
		{
			OFFSET -0.02096 2.02288 -0.14752
			CHANNELS 3 Zrotation Yrotation Xrotation
			JOINT Spine1
			{
				OFFSET 0.03477 2.03136 -0.02358
				CHANNELS 3 Zrotation Yrotation Xrotation
				JOINT Neck
				{
					OFFSET 0 0 0
					CHANNELS 3 Zrotation Yrotation Xrotation
					JOINT Neck1
					{
						OFFSET 0.00174 1.74359 0.19336
						CHANNELS 3 Zrotation Yrotation Xrotation
						JOINT Head
						{
							OFFSET -0.03054 1.76140 -0.17751
							CHANNELS 3 Zrotation Yrotation Xrotation
							End Site
							{
								OFFSET -0.00863 1.77239 -0.08120
							}
						}
					}
				}
				JOINT LeftShoulder
				{
					OFFSET 0 0 0
					CHANNELS 3 Zrotation Yrotation Xrotation
					JOINT LeftArm
					{
						OFFSET 3.68685 1.32687 -0.67367
						CHANNELS 3 Zrotation Yrotation Xrotation
						JOINT LeftForeArm
						{
							OFFSET 4.76468 -0.00000 -0.00000
							CHANNELS 3 Zrotation Yrotation Xrotation
							JOINT LeftHand
							{
								OFFSET 3.52712 -0.00000 -0.00000
								CHANNELS 3 Zrotation Yrotation Xrotation
								JOINT LeftFingerBase
								{
									OFFSET 0 0 0
									CHANNELS 3 Zrotation Yrotation Xrotation
									JOINT LeftHandIndex1
									{
										OFFSET 0.85956 -0.00000 -0.00000
										CHANNELS 3 Zrotation Yrotation Xrotation
										End Site
										{
											OFFSET 0.69300 -0.00000 -0.00000
										}
									}
								}
								JOINT LThumb
								{
									OFFSET 0 0 0
									CHANNELS 3 Zrotation Yrotation Xrotation
									End Site
									{
										OFFSET 0.70358 -0.00000 0.70358
									}
								}
							}
						}
					}
				}
				JOINT RightShoulder
				{
					OFFSET 0 0 0
					CHANNELS 3 Zrotation Yrotation Xrotation
					JOINT RightArm
					{
						OFFSET -3.31304 1.28268 -0.97357
						CHANNELS 3 Zrotation Yrotation Xrotation
						JOINT RightForeArm
						{
							OFFSET -4.90577 -0.00000 -0.00000
							CHANNELS 3 Zrotation Yrotation Xrotation
							JOINT RightHand
							{
								OFFSET -3.42692 -0.00000 0.00000
								CHANNELS 3 Zrotation Yrotation Xrotation
								JOINT RightFingerBase
								{
									OFFSET 0 0 0
									CHANNELS 3 Zrotation Yrotation Xrotation
									JOINT RightHandIndex1
									{
										OFFSET -0.74096 -0.00000 -0.00000
										CHANNELS 3 Zrotation Yrotation Xrotation
										End Site
										{
											OFFSET -0.59738 -0.00000 -0.00000
										}
									}
								}
								JOINT RThumb
								{
									OFFSET 0 0 0
									CHANNELS 3 Zrotation Yrotation Xrotation
									End Site
									{
										OFFSET -0.60650 -0.00000 0.60650
									}
								}
							}
						}
					}
				}
			}
		}
	}
}
MOTION
Frames: 6
Frame Time: 0.03125
0.00 0.00 0.00 0 0 0 0 0 0 -21 0 0 0 0 0 0 0 0 0 0 0 0 0 0 21 0 0 0 0 0 0 0 0 0 0 0 0 0 0 0 0 0 0 0 0 0 0 -16 0 0 21 0 0 11 0 0 0 -8 0 0 0 0 0 0 0 0 0 0 0 0 0 0 0 0 0 0 0 0 8 0 0 0 0 0 0 0 0 0 0 0 0 0 0 0 0 0
0.00 0.00 0.00 2.7205 1.0283 12.6507 0.0000 0.0000 0.0000 -27.0269 -2.5639 -22.9728 0.8821 5.9872 16.7474 -0.0020 -11.5818 -8.0951 1.5914 -7.9573 -22.5845 0.0000 0.0000 0.0000 13.0956 11.5156 -28.6041 -2.6851 -10.1669 29.5188 -0.3878 -1.8351 -12.5770 -0.2760 -3.3794 9.3369 -3.2007 0.5827 26.7943 2.8969 0.1757 7.3779 4.9981 0.0990 -6.6221 -7.3071 -8.4797 -8.7105 8.1350 -11.1585 5.9708 2.9070 -5.3197 4.0686 -0.0000 0.0000 0.0000 -96.3754 -0.1394 44.1690 39.7106 -47.8975 -18.2243 -0.0000 0.0000 -5.4185 17.4079 -18.4044 -5.6532 -7.1250 0.0000 -0.0000 -6.9867 10.8665 5.5871 -0.0000 0.0000 0.0000 84.2991 23.0758 25.9560 -15.4260 24.7362 -3.4022 0.0000 -0.0000 -1.1124 -13.2202 -36.4962 7.9541 7.1250 -0.0000 -0.0000 26.7469 -65.3204 -13.5749
0.00 0.00 0.00 3.8849 -1.4502 24.4827 0.0000 0.0000 0.0000 -27.1962 -9.1509 -40.9095 1.3634 7.3905 20.8776 -0.1231 -11.3904 -6.0305 1.4217 -7.5403 -21.3264 0.0000 0.0000 0.0000 7.1303 14.9046 -47.2185 -3.0516 -10.7780 31.5349 -0.1986 0.3806 -8.2903 -0.2619 -3.2921 9.0932 -0.5747 1.7154 35.3337 4.9764 2.3800 10.5331 4.6895 1.0038 -6.4698 -6.6491 -6.4310 -10.3082 4.6677 -8.2988 14.6898 1.8277 -3.9693 6.6464 0.0000 0.0000 0.0000 -97.4451 -3.1099 58.5759 54.3190 -54.5956 -29.6602 -0.0000 0.0000 -7.4466 16.8874 -21.6842 -6.4002 -7.1250 0.0000 -0.0000 -7.4889 7.5730 6.4938 0.0000 0.0000 0.0000 79.8425 45.4048 14.0862 -8.3789 14.1652 -1.0429 0.0000 0.0000 14.8623 -12.9978 -33.7633 7.3103 7.1250 -0.0000 -0.0000 24.0260 -62.8454 -10.7340
0.00 0.00 0.00 5.0506 -1.5270 36.2366 0.0000 0.0000 0.0000 -26.1575 -14.3203 -59.5138 2.5131 9.8617 28.5301 -0.4347 -15.2960 -5.0671 0.9543 -6.2209 -17.4268 0.0000 0.0000 0.0000 1.1425 16.2175 -65.9772 -4.1361 -12.3394 36.9433 -0.1692 0.8687 -7.5095 -0.0672 -1.6731 4.6031 3.6575 1.9783 38.6111 5.7891 4.1909 11.8911 2.6662 1.8224 -5.8683 -6.1056 -6.9259 -9.4633 3.9924 -8.8669 10.4326 1.5585 -4.3043 5.1377 0.0000 -0.0000 0.0000 -95.0502 -2.1873 64.7630 75.1983 -59.1558 -47.2177 -0.0000 0.0000 -3.8856 29.4695 -30.7216 -16.1022 -7.1250 0.0000 -0.0000 -1.0588 -4.3317 1.1359 0.0000 -0.0000 0.0000 73.2836 60.1877 -10.6555 -5.4278 9.3044 -0.4420 0.0000 0.0000 34.3116 -14.6925 -32.3673 7.9904 7.1250 -0.0000 -0.0000 20.9030 -62.0049 -8.8554
0.00 0.00 0.00 5.5561 -1.8822 47.0114 0.0000 0.0000 0.0000 -22.3715 -19.4350 -75.7256 3.7171 11.7741 34.9376 -0.4277 -15.5142 -5.4537 0.7885 -5.6684 -15.8252 0.0000 0.0000 0.0000 -4.3483 16.7129 -82.7784 -5.4531 -13.8766 42.7453 -0.2148 0.5132 -8.5866 -0.2373 -3.1351 8.6551 5.9975 2.4976 40.6305 7.2949 5.6113 14.0390 2.5812 2.4482 -4.0908 -5.7807 -7.2229 -9.8084 2.4274 -9.1204 3.5513 1.2427 -4.5520 3.3028 -0.0000 -0.0000 0.0000 -93.6494 -2.6795 68.6140 94.5729 -59.9208 -63.9592 -0.0000 -0.0000 2.3920 44.3670 -37.9366 -31.0207 -7.1250 0.0000 -0.0000 4.9343 -17.3463 -6.1998 -0.0000 -0.0000 0.0000 47.4911 77.3772 -33.6270 -3.9286 6.7675 -0.2324 0.0000 0.0000 33.5092 -23.3348 -34.3353 13.6754 7.1250 -0.0000 -0.0000 12.7205 -66.2093 -6.5542
0.00 0.00 0.00 6.7168 -1.8051 51.2819 0.0000 0.0000 0.0000 -20.7729 -22.1959 -80.3267 3.7396 11.8056 35.0478 -0.4359 -15.2137 -4.9414 0.6078 -4.9902 -13.8807 0.0000 0.0000 0.0000 -7.1671 15.7604 -88.3120 -5.7218 -14.1532 43.8548 -0.2230 -0.1522 -8.9751 -0.2515 -3.2267 8.9105 6.6772 2.4553 41.0434 7.6662 5.8024 14.4686 2.5758 2.5359 -3.7069 -5.1196 -7.2689 -8.7986 2.0380 -9.3341 0.5521 1.0807 -4.6792 2.0369 0.0000 -0.0000 0.0000 -92.0357 -1.8678 70.5474 101.0771 -59.5312 -69.5780 -0.0000 -0.0000 1.7935 48.0732 -40.7348 -36.0023 -7.1250 0.0000 -0.0000 5.7012 -22.0013 -7.4494 0.0000 -0.0000 0.0000 21.2579 80.3938 -59.3306 -4.4273 7.6155 -0.2948 0.0000 0.0000 35.1150 -24.3008 -34.9437 14.5004 7.1250 -0.0000 -0.0000 12.0779 -67.0881 -6.4617
